<?xml version="1.0" standalone="no"?><!DOCTYPE svg PUBLIC "-//W3C//DTD SVG 1.1//EN"
        "http://www.w3.org/Graphics/SVG/1.1/DTD/svg11.dtd">
<svg t="1516264430245" class="icon" style="" viewBox="0 0 1026 1024" version="1.1" xmlns="http://www.w3.org/2000/svg"
     p-id="8557" width="48.09375" height="48">
    <defs>
        <style type="text/css"></style>
    </defs>
    <path d="M810.666667 512 42.666667 512c-17.066667 0-29.866667-8.533333-38.4-21.333333-8.533333-12.8-8.533333-29.866667 0-42.666667L119.466667 256 4.266667 64C0 51.2 0 34.133333 4.266667 21.333333 12.8 8.533333 25.6 0 42.666667 0l768 0c12.8 0 25.6 4.266667 34.133333 17.066667l170.666667 213.333333c12.8 17.066667 12.8 38.4 0 51.2l-170.666667 213.333333C836.266667 507.733333 823.466667 512 810.666667 512zM119.466667 426.666667l674.133333 0 136.533333-170.666667-136.533333-170.666667L119.466667 85.333333l89.6 149.333333c8.533333 12.8 8.533333 29.866667 0 42.666667L119.466667 426.666667z"
          p-id="8558" fill="#777777"></path>
    <path d="M554.666667 1024l-128 0c-25.6 0-42.666667-17.066667-42.666667-42.666667L384 469.333333c0-25.6 17.066667-42.666667 42.666667-42.666667l128 0c25.6 0 42.666667 17.066667 42.666667 42.666667l0 512C597.333333 1006.933333 580.266667 1024 554.666667 1024zM469.333333 938.666667l42.666667 0L512 512l-42.666667 0L469.333333 938.666667z"
          p-id="8559" fill="#777777"></path>
</svg>